<?xml version="1.0" standalone="no"?>
<!DOCTYPE svg PUBLIC "-//W3C//DTD SVG 20010904//EN"
 "http://www.w3.org/TR/2001/REC-SVG-20010904/DTD/svg10.dtd">
<svg version="1.0" xmlns="http://www.w3.org/2000/svg"
 width="500.000000pt" height="500.000000pt" viewBox="0 0 500.000000 500.000000"
 preserveAspectRatio="xMidYMid meet">
<metadata>
Created by potrace 1.11, written by Peter Selinger 2001-2013
</metadata>
<g transform="translate(0.000000,500.000000) scale(0.100000,-0.100000)"
fill="#000000" stroke="none">
<path d="M1420 4300 l0 -180 180 0 180 0 0 -180 0 -180 -360 0 -360 0 0 -180
0 -180 -180 0 -180 0 0 -540 0 -540 180 0 180 0 0 -180 0 -180 180 0 180 0 0
-180 0 -180 180 0 180 0 0 180 0 180 180 0 180 0 0 180 0 180 -360 0 -360 0 0
180 0 180 900 0 900 0 0 180 0 180 180 0 180 0 0 -360 0 -360 -360 0 -360 0 0
-180 0 -180 180 0 180 0 0 -180 0 -180 180 0 180 0 0 180 0 180 180 0 180 0 0
900 0 900 -180 0 -180 0 0 180 0 180 -360 0 -360 0 0 180 0 180 -180 0 -180 0
0 -180 0 -180 -360 0 -360 0 0 180 0 180 -180 0 -180 0 0 -180z"/>
<path d="M1780 1060 l0 -180 720 0 720 0 0 180 0 180 -720 0 -720 0 0 -180z"/>
</g>
</svg>
